<svg version="1.0" xmlns="http://www.w3.org/2000/svg"
 width="20.000000pt" height="20.000000pt" viewBox="0 0 20.000000 20.000000"
 preserveAspectRatio="xMidYMid meet">

<g transform="translate(0.000000,24.000000) scale(0.100000,-0.100000)"
fill="#000000" stroke="none">
<path d="M95 193 c-27 -7 -75 -53 -75 -73 0 -9 13 -29 29 -44 42 -40 100 -40
142 0 36 35 37 53 2 86 -30 27 -65 38 -98 31z m90 -38 c31 -30 31 -40 0 -70
-34 -35 -96 -35 -130 0 -14 13 -25 29 -25 35 0 6 11 22 25 35 34 35 96 35 130
0z"/>
<path d="M96 144 c-9 -8 -16 -19 -16 -24 0 -11 29 -40 40 -40 11 0 40 29 40
40 0 11 -29 40 -40 40 -5 0 -16 -7 -24 -16z m44 -24 c0 -13 -7 -20 -20 -20
-13 0 -20 7 -20 20 0 13 7 20 20 20 13 0 20 -7 20 -20z"/>
</g>
</svg>
