<svg fill="none" height="33" viewBox="0 0 126 33" width="126" xmlns="http://www.w3.org/2000/svg"><path d="m15.2835 4.576c-.8747-.53333-1.728-.8-2.56-.8-1.344 0-2.816.21333-4.416.64l-1.728.416c-.512.128-.90666.192-1.184.192-.64 0-.96-.23467-.96-.704 0-.27733.23467-.61867.704-1.024.448-.42667 1.056-.832 1.824-1.216 1.89867-.93867 3.9573-1.408001 6.176-1.408001 3.1787 0 5.216.544001 6.112 1.632001.256.29867.384.71467.384 1.248-.0427 2.06933-1.0027 7.5733-2.88 16.512 2.5173-1.024 4.0533-1.8667 4.608-2.528.576-.6613 1.024-.992 1.344-.992s.48.3307.48.992-.2027 1.2373-.608 1.728c-.384.4907-1.0027 1.0453-1.856 1.664-.832.6187-2.368 1.408-4.608 2.368-.1707.8533-.4907 1.8027-.96 2.848-1.6 4.416-4.2133 6.624-7.84 6.624-1.77066 0-3.27467-.384-4.512-1.152s-1.855998-1.952-1.855998-3.552c0-.576.298668-1.12.895998-1.632.576-.512 1.42933-1.056 2.56-1.632 1.10934-.5547 3.28534-1.408 6.528-2.56.128-.7467.2347-1.44.32-2.08.0853-.6613.1813-1.2267.288-1.696.448-3.0507 1.3333-6.6453 2.656-10.784.384-1.17333.7467-2.208 1.088-3.104zm-10.112 25.184c.64.3413 1.248.512 1.824.512.576.0213 1.01334-.1067 1.312-.384.29867-.256.61867-.6827.96-1.28.36267-.5973.71467-1.6427 1.056-3.136-1.10933.384-2.05866.704-2.848.96-.768.256-1.39733.4907-1.888.704-.46933.2133-.81067.416-1.024.608-.23467.192-.352.4267-.352.704 0 .5333.32.9707.96 1.312zm28.5353-8.48c-1.6854 1.984-3.712 2.976-6.08 2.976-2.3467 0-4.1067-.5973-5.28-1.792-1.1734-1.216-1.7494-2.72-1.728-4.512-.0214-2.5387.7786-4.7253 2.4-6.56 1.6213-1.83467 3.744-2.752 6.368-2.752 1.1946 0 2.1546.14933 2.88.448 1.2586.512 1.888.992 1.888 1.44 0 .3413-.8854.5227-2.656.544-1.7494 0-3.2214.608-4.416 1.824-1.1734 1.1947-1.76 2.7093-1.76 4.544 0 .96.2773 1.7707.832 2.432.576.64 1.376.96 2.4.96 1.0453 0 1.9093-.2133 2.592-.64-1.5147-1.024-2.272-2.5067-2.272-4.448-.0214-1.024.3413-1.952 1.088-2.784.768-.8533 1.7386-1.28 2.912-1.28 1.1946-.0213 2.048.2987 2.56.96s.768 1.5147.768 2.56c0 1.024-.2454 2.112-.736 3.264h.192c.9386-.0213 1.7493-.352 2.432-.992.256-.256.4693-.48.64-.672.192-.192.384-.288.576-.288.2986 0 .448.352.448 1.056 0 1.3013-.384 2.2827-1.152 2.944-.768.64-1.6214.96-2.56.96-.9174 0-1.696-.064-2.336-.192zm-.288-3.712c.3626-.768.544-1.5147.544-2.24s-.2347-1.088-.704-1.088c-.192 0-.352.1387-.48.416s-.192.544-.192.8c0 .8533.2773 1.5573.832 2.112zm14.047-7.072c0-1.42933 1.1093-2.144 3.328-2.144.5546 0 .896.18133 1.024.544.1493.36267.224.91733.224 1.664 0 1.0453-.2347 2.6667-.704 4.864-.4694 2.1973-.6934 3.68-.672 4.448 0 .3627.1173.544.352.544.32 0 .7146-.2027 1.184-.608.4693-.4053.9386-.8427 1.408-1.312.4693-.4907.896-.9387 1.28-1.344.4053-.4053.6826-.608.832-.608.2986 0 .448.3627.448 1.088 0 1.4933-.736 2.9333-2.208 4.32-2.4747 1.4507-4.0427 2.176-4.704 2.176-.064 0-.1174-.0107-.16-.032-.8107 0-1.3867-.2667-1.728-.8-.32-.5333-.5227-1.2053-.608-2.016-.4267.7893-1.0134 1.472-1.76 2.048-.7467.5547-1.6.832-2.56.832-1.6854 0-2.9867-.32-3.904-.96-.896-.64-1.344-1.5893-1.344-2.848 0-.5547.0746-1.0667.224-1.536.1706-.4693.4373-1.0453.8-1.728l.928-7.872c.6613-.512 1.6106-.768 2.848-.768.9813 0 1.536.64 1.664 1.92.1066 1.0453.0533 1.984-.16 2.816-.192.8107-.4587 1.8453-.8 3.104-.3414 1.2373-.512 2.336-.512 3.296 0 .768.48 1.152 1.44 1.152 1.0453 0 1.952-.9173 2.72-2.752.5973-1.408 1.0026-2.976 1.216-4.704-.0214-.1707-.0427-.384-.064-.64 0-.2773-.0107-.544-.032-.8 0-.256 0-.512 0-.768zm11.1425 8.128.192 3.904c0 .512-.2667.9707-.8 1.376-.5334.4053-1.2587.608-2.176.608-.5334 0-.9067-.2773-1.12-.832-.192-.5547-.288-1.3653-.288-2.432 0-2.24.1066-3.9893.32-5.248.2346-1.28.6826-2.5707 1.344-3.872-.9814-.9387-1.472-1.7493-1.472-2.432 0-1.42933.768-2.144 2.304-2.144.7893 0 1.4826.416 2.08 1.248.4266.576.736 1.248.928 2.016.2986.1067.672.16 1.12.16.6186 0 1.3333-.2027 2.144-.608l.832-.416c.256-.128.48-.192.672-.192.6186 0 1.2373.9067 1.856 2.72-.192.832-.4054 1.632-.64 2.4-.2134.768-.4694 1.696-.768 2.784-.2987 1.088-.4587 1.824-.48 2.208 0 .3627.1173.544.352.544.32 0 .7146-.2027 1.184-.608.4693-.4053.9386-.8427 1.408-1.312.4693-.4907.896-.9387 1.28-1.344.4053-.4053.6826-.608.832-.608.2986 0 .448.3627.448 1.088 0 1.472-.6507 2.9227-1.952 4.352-1.28 1.4293-2.752 2.1333-4.416 2.112-.9814 0-1.7174-.3947-2.208-1.184-.4907-.7893-.7467-1.7493-.768-2.88 0-2.24.5013-4.3627 1.504-6.368-.4694.192-1.0027.288-1.6.288-.576 0-.992-.0213-1.248-.064-.192.8107-.384 1.632-.576 2.464-.192.8107-.288 1.568-.288 2.272zm13.569-10.592c.768 0 1.4933.736 2.176 2.208 1.0026-1.04533 2.24-1.568 3.712-1.568 1.4933 0 2.6133.33067 3.36.992.7466.64 1.12 1.5573 1.12 2.752 0 1.1733-.16 2.368-.48 3.584-.2987 1.216-.5227 2.0907-.672 2.624-.128.512-.192.9387-.192 1.28s.1173.512.352.512c.32 0 .7146-.2027 1.184-.608.4693-.4053.9386-.8427 1.408-1.312.4693-.4907.896-.9387 1.28-1.344.4053-.4053.6826-.608.832-.608.2986 0 .448.3627.448 1.088 0 1.4933-.736 2.9333-2.208 4.32-2.4747 1.4507-4.0534 2.176-4.736 2.176-.064 0-.1067-.0107-.128-.032-1.7067 0-2.56-1.3653-2.56-4.096 0-1.1733.1066-2.2507.32-3.232.2346-.9813.4053-1.696.512-2.144.1066-.448.16-.9067.16-1.376 0-.768-.448-1.152-1.344-1.152-.8747 0-1.7174.6613-2.528 1.984-.7894 1.3013-1.3227 2.656-1.6 4.064v.224c0 .7253.1066 1.472.32 2.24.2346.768.352 1.3013.352 1.6 0 .7253-.9067 1.44-2.72 2.144-.2774.1067-.5227.16-.736.16-.5334 0-.9067-.2773-1.12-.832-.192-.5547-.288-1.4187-.288-2.592 0-3.0293.1173-5.216.352-6.56.32-2.0053 1.0453-3.872 2.176-5.6.384-.59733.8-.896 1.248-.896zm19.7475 12.48c1.664 0 3.2746-.6613 4.832-1.984.576-.4907 1.0453-.9387 1.408-1.344.3626-.4267.64-.64.832-.64.2986 0 .448.2987.448.896s-.16 1.2693-.48 2.016c-.32.7253-.8534 1.44-1.6 2.144-1.8347 1.728-4.352 2.592-7.552 2.592-2.5387 0-4.2667-.9173-5.184-2.752-.32-.64-.48-1.5573-.48-2.752s.2346-2.432.704-3.712c.4693-1.3013 1.088-2.4213 1.856-3.36.7893-.9387 1.696-1.664 2.72-2.176 1.024-.53333 2.112-.8 3.264-.8 1.1733 0 2.0693.288 2.688.864.64.576.96 1.3227.96 2.24s-.2347 1.6747-.704 2.272c-.448.576-1.0347 1.0667-1.76 1.472-.7254.384-1.536.736-2.432 1.056-.8747.2987-1.7387.64-2.592 1.024v.8c.0213.768.3413 1.312.96 1.632.6186.32 1.3226.4907 2.112.512zm-.544-9.024c-1.1094 0-1.8774 1.2907-2.304 3.872.448-.2987.864-.5653 1.248-.8.4053-.2347.7573-.4587 1.056-.672.64-.4693.9706-1.0027.992-1.6 0-.5333-.3307-.8-.992-.8zm14.4312 10.176c-1.067 1.472-2.496 2.208-4.288 2.208-1.451 0-2.6136-.2987-3.4882-.896-.8534-.6187-1.28-1.5893-1.28-2.912 0-.5547.0746-1.0667.224-1.536.1706-.4693.4373-1.0453.8-1.728l.928-7.584c.6613-.512 1.5572-.768 2.6882-.768.96 0 1.504.64 1.632 1.92.042.384.064.8427.064 1.376 0 .512-.086 1.056-.256 1.632-.854 2.944-1.27 4.9173-1.248 5.92 0 .768.448 1.152 1.344 1.152s1.557-.288 1.984-.864c.426-.576.789-1.2907 1.088-2.144.554-2.368 1.066-4.32 1.536-5.856.49-1.536.8-2.45333.928-2.752.213-.512.618-.77867 1.216-.8.597.02133 1.162.448 1.696 1.28.533.8107.8 1.44.8 1.888-.043 1.4933-.971 5.2587-2.784 11.296 1.386-1.088 2.762-2.4213 4.128-4 .469-.5547.864-1.0133 1.184-1.376.32-.384.576-.576.768-.576.298 0 .448.3413.448 1.024 0 1.344-.758 2.912-2.272 4.704-1.494 1.792-3.328 3.1893-5.504 4.192-.256.8533-.534 1.664-.832 2.432-.299.768-.683 1.44-1.152 2.016-1.024 1.2373-2.582 1.856-4.672 1.856-1.408 0-2.6136-.4053-3.6162-1.216-.9814-.8107-1.472-1.824-1.472-3.04 0-.6827.224-1.2267.672-1.632.4693-.4053 1.0986-.7467 1.888-1.024.8106-.256 1.7492-.4907 2.8162-.704 1.066-.192 2.208-.4373 3.424-.736.298-1.28.501-2.1973.608-2.752zm-4.352 8.64c1.002 0 1.909-.8747 2.72-2.624-.768.1493-1.451.256-2.048.32-.598.0853-1.11.16-1.536.224-.8536.128-1.2696.352-1.2482.672 0 .4053.2346.7467.7042 1.024.49.2773.96.4053 1.408.384zm19.525-21.792c1.429-.02133 2.496.24533 3.2.8.704.53333 1.056 1.312 1.056 2.336 0 1.0027-.31 1.8667-.928 2.592-.598.704-1.334 1.2053-2.208 1.504.618.64 1.173 1.2907 1.664 1.952.512.6613.768 1.3547.768 2.08 0 1.4293-.566 2.5387-1.696 3.328-1.131.768-2.71 1.152-4.736 1.152-2.006 0-3.51-.3947-4.512-1.184-1.003-.8107-1.504-1.7173-1.504-2.72 0-1.024.245-1.952.736-2.784.512-.832 1.056-1.248 1.632-1.248.341 0 .586.128.736.384.149.2347.426.9387.832 2.112.149.4267.394.832.736 1.216.789.8747 2.037 1.312 3.744 1.312-.256-.8107-.672-1.504-1.248-2.08-.555-.5973-1.11-1.1733-1.664-1.728-.555-.5547-1.046-1.1413-1.472-1.76-.427-.64-.64-1.3867-.64-2.24 0-1.536.576-2.784 1.728-3.744 1.088-.85333 2.346-1.28 3.776-1.28zm-.128 5.92c.853-.9173 1.28-1.6533 1.28-2.208 0-.256-.096-.48-.288-.672-.171-.2133-.427-.32-.768-.32-.342 0-.672.0427-.992.128-.299.0853-.544.1493-.736.192 0 .8107.501 1.7707 1.504 2.88z" fill="#000"/></svg>