<svg fill="none" height="177" viewBox="0 0 264 177" width="264" xmlns="http://www.w3.org/2000/svg" xmlns:xlink="http://www.w3.org/1999/xlink"><clipPath id="a"><path d="m60.5869 38.8179h156.42v114.51h-156.42z"/></clipPath><clipPath id="b"><path d="m116.356 95.9079h115.83v55.77h-115.83z"/></clipPath><clipPath id="c"><path d="m37.8164 22.6479h124.74v68.64h-124.74z"/></clipPath><clipPath id="d"><path d="m81.7085 43.108h34.65v34.65h-34.65z"/></clipPath><g opacity=".7"><g clip-path="url(#a)"><path d="m161.84 151.82-1.061-.539c-1.97-1.001-3.625-2.526-4.781-4.407-1.155-1.881-1.767-4.045-1.767-6.251v-37.047h-30.869v37.047c0 2.206-.612 4.37-1.768 6.251s-2.81 3.406-4.781 4.407l-1.061.539c-.748.381-.477 1.508.363 1.508h45.363c.84 0 1.111-1.128.362-1.508z" fill="#d6d6d6"/><path d="m213.011 38.8179h-148.429c-1.0597 0-2.076.42-2.8253 1.1677-.7493.7476-1.1703 1.7616-1.1703 2.8189v82.9215c0 1.057.421 2.071 1.1703 2.819.7493.747 1.7656 1.167 2.8253 1.167h148.429c1.06 0 2.076-.42 2.825-1.167.749-.748 1.17-1.762 1.17-2.819v-82.9215c0-1.0573-.421-2.0713-1.17-2.8189-.749-.7477-1.765-1.1677-2.825-1.1677z" fill="#5d5d5d"/><path d="m217.006 115.706h-156.4196v10.02c0 1.057.421 2.071 1.1703 2.819.7493.747 1.7656 1.167 2.8253 1.167h148.429c1.06 0 2.076-.42 2.825-1.167.749-.748 1.17-1.762 1.17-2.819zm-150.7865-71.4927h145.1535v66.1647h-145.1535z" fill="#d6d6d6"/><path d="m140.353 126.058h-3.113c-.424-.001-.829-.17-1.129-.469-.299-.298-.468-.703-.469-1.126v-3.106c.001-.422.17-.827.469-1.126.3-.299.705-.467 1.129-.468h3.113c.423.001.829.169 1.128.468.3.299.469.704.47 1.126v3.106c-.001.423-.17.828-.47 1.126-.299.299-.705.468-1.128.469z" fill="#fcfcfc"/></g><g clip-path="url(#b)"><path d="m178.731 124.431 2.633 10.633-23.459 5.775-2.632-10.633z" fill="#5d5d5d"/><path d="m118.707 149.781-2.304-9.309c-.051-.203-.06-.414-.029-.621.032-.207.104-.406.212-.586.109-.179.252-.335.421-.459s.361-.214.565-.264l51.031-12.562 3.071 12.405-51.031 12.562c-.204.05-.416.06-.624.028-.207-.031-.407-.103-.586-.211-.18-.109-.337-.251-.461-.42-.125-.168-.215-.36-.265-.563z" fill="#222"/><path d="m204.223 150.077c14.558 0 26.359-11.768 26.359-26.284 0-14.517-11.801-26.2843-26.359-26.2843-14.557 0-26.358 11.7673-26.358 26.2843 0 14.516 11.801 26.284 26.358 26.284z" fill="#fff"/><path d="m204.173 151.683c-5.033 0-9.986-1.365-14.405-4.027-6.392-3.85-10.898-9.952-12.687-17.182-1.79-7.23-.649-14.721 3.212-21.096 3.861-6.374 9.98-10.8668 17.23-12.6517 14.967-3.6848 30.149 5.4607 33.843 20.3847 3.694 14.925-5.476 30.064-20.443 33.748-2.208.546-4.475.822-6.75.824zm.049-52.5824c-1.959 0-3.947.2335-5.932.7224-6.421 1.58-11.84 5.56-15.259 11.204-3.419 5.645-4.43 12.28-2.845 18.683 1.585 6.402 5.575 11.806 11.236 15.216s12.314 4.416 18.735 2.836c13.254-3.262 21.376-16.669 18.104-29.886-2.782-11.238-12.919-18.7754-24.039-18.7754z" fill="#707070"/></g><g clip-path="url(#c)"><path d="m162.556 26.5452v64.7427h-124.7396v-64.7427c0-2.1516 1.7457-3.8973 3.8973-3.8973h116.9483c2.152 0 3.894 1.7457 3.894 3.8973z" fill="#a3a3a3"/><path d="m162.556 26.5452v8.0256h-124.7396v-8.0256c0-2.1516 1.7457-3.8973 3.8973-3.8973h116.9483c2.152 0 3.894 1.7457 3.894 3.8973z" fill="#707070"/><path d="m46.3788 29.9574c.7788 0 1.4101-.6313 1.4101-1.4101s-.6313-1.4101-1.4101-1.4101c-.7787 0-1.41.6313-1.41 1.4101s.6313 1.4101 1.41 1.4101z" fill="#fff"/><path d="m51.3784 29.9574c.7787 0 1.41-.6313 1.41-1.4101s-.6313-1.4101-1.41-1.4101c-.7788 0-1.4101.6313-1.4101 1.4101s.6313 1.4101 1.4101 1.4101z" fill="#707070"/><path d="m56.3774 29.9574c.7787 0 1.4101-.6313 1.4101-1.4101s-.6314-1.4101-1.4101-1.4101c-.7788 0-1.4101.6313-1.4101 1.4101s.6313 1.4101 1.4101 1.4101z" fill="#f0f0f0"/><path d="m157.259 24.9035h1.357v1.3576h-1.357zm0 3.0918h1.357v1.3576h-1.357zm0 3.0917h1.357v1.3576h-1.357z" fill="#fff"/><path d="m147.318 30.4524h-79.2003c-1.1798 0-2.145-.9652-2.145-2.145 0-1.1797.9652-2.145 2.145-2.145h79.2003c1.179 0 2.145.9653 2.145 2.145 0 1.1798-.966 2.145-2.145 2.145z" fill="#fcfcfc"/></g><g clip-path="url(#d)" fill="#222"><path d="m81.71 48.1084 5-5.0001 29.65 29.6497-5 5z"/><path d="m81.71 72.7579 29.649-29.6499 5 5.0003-29.6493 29.6497z"/></g></g></svg>