<svg width="18" height="18" viewBox="0 0 18 18" fill="none" xmlns="http://www.w3.org/2000/svg">
<path fill-rule="evenodd" clip-rule="evenodd" d="M2.02066 3.31675C4.75756 -0.0511076 9.60751 -1.03234 13.4879 1.20094L13.4987 1.20716L13.5095 1.21341C17.3839 3.45725 18.9591 8.14812 17.4109 12.2023C17.2984 12.4969 17.1618 12.9168 16.7915 13.2207C16.5106 13.4511 16.1092 13.5937 15.7459 13.592C15.4838 13.5907 15.264 13.5189 15.0772 13.4344C14.9154 13.3612 14.7387 13.2592 14.5663 13.1596L9.29867 10.1183L5.69287 16.3638H17.1803C17.6321 16.3638 17.9984 16.7301 17.9984 17.1819C17.9984 17.6337 17.6321 18 17.1803 18H0.818109C0.36628 18 0 17.6337 0 17.1819C0 16.7301 0.36628 16.3638 0.818109 16.3638H3.80353L7.88167 9.30023L2.61396 6.25892C2.44149 6.15939 2.26481 6.05743 2.12051 5.95386C1.95393 5.83429 1.78183 5.67988 1.64971 5.45352C1.46656 5.13972 1.3893 4.72086 1.44845 4.36236C1.52647 3.88956 1.82177 3.56149 2.02066 3.31675ZM3.29046 4.34866C4.94084 2.31779 7.53197 1.34854 10.0514 1.71143C9.8268 1.85596 9.60309 2.01672 9.38172 2.19091C8.18778 3.1304 6.95507 4.54524 5.87911 6.25471L3.07483 4.62477C3.10658 4.57778 3.17758 4.48755 3.29046 4.34866ZM14.7053 5.26447C14.4886 6.7682 13.8797 8.54317 12.9372 10.3297L15.7511 11.9434C15.7759 11.8924 15.8185 11.7858 15.8824 11.6186C16.816 9.17383 16.3598 6.44515 14.7857 4.44465C14.7728 4.71149 14.7455 4.98564 14.7053 5.26447Z" fill="currentColor"/>
</svg>
